<svg width="545" height="154" viewBox="0 0 545 154" fill="none" xmlns="http://www.w3.org/2000/svg">
<path d="M126 0V14H112V42H126V56H98V84H112V70H126V56H140V84H154V98H126V126H112V98H98V140H112V154H84V98H70V154H42V140H56V98H42V126H28V98H0V84H14V56H28V42H42V14H56V28H98V14H112V0H126ZM202 74H209V81H202V123H188V67H202V74ZM272 74H279V123H272V116H265V123H237V116H230V95H237V88H258V95H244V116H265V102H258V95H265V74H251V81H237V74H244V67H272V74ZM342 123H335V116H328V123H293V116H286V74H300V116H328V81H321V74H328V32H342V123ZM377 116H391V123H349V116H363V74H349V67H377V116ZM433 74H412V116H433V123H405V116H398V74H405V67H433V74ZM475 116H496V74H503V67H538V74H545V95H510V116H538V123H503V116H496V123H447V116H461V39H447V32H475V116ZM440 116H433V109H440V116ZM545 116H538V109H545V116ZM510 88H531V74H510V88ZM42 84H56V70H70V56H42V84ZM230 81H223V74H230V81ZM440 81H433V74H440V81ZM223 74H209V67H223V74ZM321 74H300V67H321V74ZM377 46H363V32H377V46ZM42 0V14H28V0H42Z" fill="white"/>
</svg>
